{
  "title": "Ted 2 {2015}  HDCAM EDiT + NEW AUDIO X264 AC3-MRG",
  "uid": 12074794,
  "size": 894982003,
  "categoryP": "video",
  "categoryS": "movies",
  "magnet": "?xt=urn:btih:21f0df853c4735e995a4d6cd44bf8427bbb59d55&amp;dn=Ted+2+%7B2015%7D++HDCAM+EDiT+%2B+NEW+AUDIO+X264+AC3-MRG&amp;tr=udp%3A%2F%2Ftracker.openbittorrent.com%3A80&amp;tr=udp%3A%2F%2Fopen.demonii.com%3A1337&amp;tr=udp%3A%2F%2Ftracker.coppersurfer.tk%3A6969&amp;tr=udp%3A%2F%2Fexodus.desync.com%3A6969",
  "seeders": 62,
  "leechers": 10,
  "uploader": "makintos13",
  "files": 7,
  "time": 1435609785,
  "description": " &lt;a href=&quot;http://imgmak.com/Mf&quot; rel=&quot;nofollow&quot; target=&quot;_NEW&quot;&gt;http://imgmak.com/Mf&lt;/a&gt;\n &lt;a href=&quot;\nhttp://imgmak.com/ME&quot; rel=&quot;nofollow&quot; target=&quot;_NEW&quot;&gt;\nhttp://imgmak.com/ME&lt;/a&gt;\n &lt;a href=&quot;\nhttp://imgmak.com/Mh&quot; rel=&quot;nofollow&quot; target=&quot;_NEW&quot;&gt;\nhttp://imgmak.com/Mh&lt;/a&gt;\n\n:::::::::::::\n\n\nTed 2 {2015} HDCAM EDiT + NEW AUDIO X264 AC3-MRG.mkv\n\nNFO : made a full movie frm wat we got ....all work done was by my gd \n      friend Gabriel.....\n\nadded missing footage intro and ending with after scene aswell THEN Synced\nwith new cam audio ...hardly any crowed noise at all......\n\n{only 20 mins in low quality rest HDCAM}..........\n\n\nFormat                      : Matroska\nFormat version              : Version 2\nFile size                   : 853 MiB\nDuration                    : 1h 48mn\nOverall bit rate            : 1 096 Kbps\nWriting application         : Lavf54.63.104\nWriting library             : Lavf54.63.104\n\nVideo\nID                          : 1\nFormat                      : AVC\nFormat/Info                 : Advanced Video Codec\nFormat profile              : &lt;a class=&quot;__cf_email__&quot; href=&quot;/cdn-cgi/l/email-protection&quot; data-cfemail=&quot;f0b29183959c999e95b0bcc3dec1&quot;&gt;[email&amp;#160;protected]&lt;/a&gt;&lt;script data-cfhash='f9e31' type=&quot;text/javascript&quot;&gt;\n/* &lt;![CDATA[ */!function(){try{var t=&quot;currentScript&quot;in document?document.currentScript:function(){for(var t=document.getElementsByTagName(&quot;script&quot;),e=t.length;e--;)if(t[e].getAttribute(&quot;data-cfhash&quot;))return t[e]}();if(t&amp;&amp;t.previousSibling){var e,r,n,i,c=t.previousSibling,a=c.getAttribute(&quot;data-cfemail&quot;);if(a){for(e=&quot;&quot;,r=parseInt(a.substr(0,2),16),n=2;a.length-n;n+=2)i=parseInt(a.substr(n,2),16)^r,e+=String.fromCharCode(i);e=document.createTextNode(e),c.parentNode.replaceChild(e,c)}t.parentNode.removeChild(t);}}catch(u){}}()/* ]]&gt; */&lt;/script&gt;\nFormat settings, CABAC      : No\nFormat settings, ReFrames   : 2 frames\nFormat settings, GOP        : M=1, N=60\nCodec ID                    : V_MPEG4/ISO/AVC\nDuration                    : 1h 48mn\nBit rate                    : 947 Kbps\nWidth                       : 854 pixels\nHeight                      : 480 pixels\nDisplay aspect ratio        : 16:9\nFrame rate mode             : Constant\nFrame rate                  : 29.970 fps\nColor space                 : YUV\nChroma subsampling          : 4:2:0\nBit depth                   : 8 bits\nScan type                   : Progressive\nBits/(Pixel*Frame)          : 0.077\nStream size                 : 736 MiB (86%)\nDefault                     : Yes\nForced                      : No\n\nAudio\nID                          : 2\nFormat                      : AC-3\nFormat/Info                 : Audio Coding 3\nMode extension              : CM (complete main)\nFormat settings, Endianness : Big\nCodec ID                    : A_AC3\nDuration                    : 1h 48mn\nBit rate mode               : Constant\nBit rate                    : 128 Kbps\nChannel(s)                  : 2 channels\nChannel positions           : Front: L R\nSampling rate               : 48.0 KHz\nCompression mode            : Lossy\nStream size                 : 99.6 MiB (12%)\nLanguage                    : unknown\nDefault                     : Yes\nForced                      : No",
  "parsed": {
    "xt": "urn:btih:21f0df853c4735e995a4d6cd44bf8427bbb59d55",
    "dn": "Ted 2 {2015}  HDCAM EDiT   NEW AUDIO X264 AC3-MRG",
    "tr": [
      "udp://exodus.desync.com:6969",
      "udp://open.demonii.com:1337",
      "udp://tracker.coppersurfer.tk:6969",
      "udp://tracker.openbittorrent.com:80"
    ],
    "infoHash": "21f0df853c4735e995a4d6cd44bf8427bbb59d55",
    "infoHashBuffer": {
      "type": "Buffer",
      "data": [
        33,
        240,
        223,
        133,
        60,
        71,
        53,
        233,
        149,
        164,
        214,
        205,
        68,
        191,
        132,
        39,
        187,
        181,
        157,
        85
      ]
    },
    "name": "Ted 2 {2015}  HDCAM EDiT   NEW AUDIO X264 AC3-MRG",
    "announce": [
      "udp://exodus.desync.com:6969",
      "udp://open.demonii.com:1337",
      "udp://tracker.coppersurfer.tk:6969",
      "udp://tracker.openbittorrent.com:80"
    ],
    "urlList": []
  },
  "previous": 72,
  "peers": 10,
  "last_updated": "2016-12-24T19:34:33.268Z"
}